<?xml version="1.0" standalone="no"?>
<!DOCTYPE svg PUBLIC "-//W3C//DTD SVG 20010904//EN"
 "http://www.w3.org/TR/2001/REC-SVG-20010904/DTD/svg10.dtd">
<svg version="1.0" xmlns="http://www.w3.org/2000/svg"
 width="256.000000pt" height="256.000000pt" viewBox="0 0 256.000000 256.000000"
 preserveAspectRatio="xMidYMid meet">

<g transform="translate(0.000000,256.000000) scale(0.100000,-0.100000)"
fill="#000000" stroke="none">
<path d="M167 2544 c-31 -10 -64 -31 -92 -59 -70 -70 -75 -98 -75 -445 0 -347
5 -375 75 -445 79 -79 13 -75 1196 -75 720 0 1064 3 1099 11 66 14 127 62 159
124 l26 49 0 336 0 335 -29 53 c-29 52 -64 85 -121 112 -46 23 -2167 26 -2238
4z m2210 -166 l23 -21 0 -316 c0 -309 0 -315 -22 -338 l-21 -23 -1074 0 -1074
0 -24 25 -25 24 0 312 c0 307 0 313 22 336 l21 23 1076 0 1075 0 23 -22z"/>
<path d="M713 2310 c-43 -14 -90 -63 -103 -108 -5 -20 -10 -115 -10 -210 l0
-174 29 -29 c16 -16 39 -29 51 -29 12 0 35 13 51 29 24 25 29 37 29 80 l0 51
40 0 40 0 0 -51 c0 -43 5 -55 29 -80 37 -37 65 -37 103 1 l30 30 -4 192 c-3
216 -10 239 -77 280 -38 24 -155 34 -208 18z m127 -190 l0 -40 -40 0 -40 0 0
40 0 40 40 0 40 0 0 -40z"/>
<path d="M1130 2308 c-45 -24 -50 -48 -50 -275 0 -208 0 -212 23 -239 20 -23
34 -28 84 -32 164 -12 275 80 289 239 13 134 -34 239 -127 287 -57 29 -180 40
-219 20z m167 -170 c20 -19 23 -31 23 -97 0 -63 -3 -78 -22 -98 -12 -13 -30
-23 -40 -23 -16 0 -18 10 -18 120 0 106 2 120 17 120 9 0 27 -10 40 -22z"/>
<path d="M1675 2310 c-74 -23 -123 -111 -111 -198 13 -94 67 -141 172 -150 53
-4 64 -8 64 -22 0 -16 -12 -19 -95 -22 -81 -3 -98 -6 -116 -25 -29 -29 -29
-77 0 -106 20 -20 31 -22 139 -22 99 0 122 3 150 20 54 32 77 79 77 155 0 113
-53 168 -171 178 -53 4 -64 8 -64 22 0 16 12 19 95 22 81 3 98 6 116 25 29 29
29 77 0 106 -19 19 -33 22 -124 24 -56 1 -116 -2 -132 -7z"/>
<path d="M1412 1425 c-53 -16 -105 -55 -129 -96 -15 -26 -65 -54 -275 -160
l-258 -129 -179 0 c-99 0 -202 -5 -230 -11 -189 -40 -278 -260 -170 -422 36
-54 108 -105 161 -114 21 -3 41 -10 45 -16 3 -5 30 -105 59 -221 67 -267 57
-256 225 -256 120 0 121 0 150 29 l29 29 0 186 c0 102 2 186 5 186 3 0 99 -47
213 -104 169 -85 210 -110 225 -136 11 -17 37 -44 59 -60 133 -97 319 -33 363
125 9 33 18 66 20 73 3 6 12 12 20 12 33 0 128 56 175 103 56 56 92 125 110
210 37 180 -76 375 -252 437 l-53 18 -6 75 c-11 131 -69 211 -173 242 -59 18
-78 18 -134 0z m123 -170 l25 -24 0 -471 0 -471 -25 -24 c-15 -16 -36 -25 -55
-25 -19 0 -40 9 -55 25 l-25 24 0 471 0 471 25 24 c15 16 36 25 55 25 19 0 40
-9 55 -25z m-295 -495 c0 -192 -2 -350 -5 -350 -3 0 -93 44 -200 97 l-195 98
0 155 0 155 193 97 c105 53 195 97 200 97 4 1 7 -156 7 -349z m586 114 c93
-121 62 -291 -65 -362 l-41 -23 0 231 0 231 41 -23 c23 -13 52 -37 65 -54z
m-1146 -114 l0 -120 -155 0 c-120 0 -163 4 -185 15 -55 28 -76 105 -45 165 27
52 54 59 228 60 l157 0 0 -120z m0 -440 l0 -160 -30 0 c-33 0 -27 -14 -75 180
-14 58 -28 113 -31 123 -5 15 3 17 65 17 l71 0 0 -160z"/>
<path d="M2230 1243 c-8 -3 -50 -40 -92 -81 -66 -65 -78 -82 -78 -109 0 -43
30 -73 73 -73 27 0 45 12 111 79 65 65 79 85 79 111 0 47 -52 87 -93 73z"/>
<path d="M2149 771 c-16 -16 -29 -39 -29 -51 0 -12 13 -35 29 -51 29 -28 32
-29 131 -29 99 0 102 1 131 29 16 16 29 39 29 51 0 12 -13 35 -29 51 -29 28
-32 29 -131 29 -99 0 -102 -1 -131 -29z"/>
<path d="M2080 440 c-12 -12 -20 -33 -20 -53 0 -27 12 -45 79 -111 88 -88 122
-100 163 -58 42 41 30 75 -58 163 -66 67 -84 79 -111 79 -20 0 -41 -8 -53 -20z"/>
</g>
</svg>
