<?xml version="1.0" standalone="no"?>
<!DOCTYPE svg PUBLIC "-//W3C//DTD SVG 20010904//EN"
 "http://www.w3.org/TR/2001/REC-SVG-20010904/DTD/svg10.dtd">
<svg version="1.0" xmlns="http://www.w3.org/2000/svg"
 width="512.000000pt" height="512.000000pt" viewBox="0 0 512.000000 512.000000"
 preserveAspectRatio="xMidYMid meet">

<g transform="translate(0.000000,512.000000) scale(0.100000,-0.100000)"
fill="#000000" stroke="none">
<path d="M816 4368 c-109 -20 -261 -110 -340 -200 -58 -66 -132 -214 -145
-292 -7 -39 -11 -393 -11 -1030 0 -1087 -3 -1035 73 -1180 79 -152 231 -275
391 -316 74 -19 111 -20 540 -20 l460 0 388 -387 388 -388 388 388 388 387
460 0 c429 0 466 1 540 20 160 41 312 164 391 316 76 145 73 93 73 1180 0 637
-4 991 -11 1030 -13 78 -87 226 -145 292 -82 93 -231 179 -349 201 -75 14
-3406 13 -3479 -1z m1359 -849 c98 -18 170 -61 280 -170 l101 -98 99 94 c121
114 200 160 308 177 310 48 582 -222 535 -532 -6 -36 -26 -99 -45 -140 -33
-72 -50 -91 -463 -505 l-430 -430 -430 430 c-413 414 -430 433 -463 505 -93
200 -54 408 104 555 106 100 255 142 404 114z"/>
</g>
</svg>
