<?xml version="1.0" standalone="no"?>
<!DOCTYPE svg PUBLIC "-//W3C//DTD SVG 20010904//EN"
 "http://www.w3.org/TR/2001/REC-SVG-20010904/DTD/svg10.dtd">
<svg version="1.0" xmlns="http://www.w3.org/2000/svg"
 width="728.000000pt" height="724.000000pt" viewBox="0 0 728.000000 724.000000"
 preserveAspectRatio="xMidYMid meet">

<g transform="translate(0.000000,724.000000) scale(0.100000,-0.100000)"
fill="#000000" stroke="none">
<path d="M3000 5684 c-380 -25 -493 -41 -666 -99 -119 -39 -162 -60 -269 -130
-138 -91 -294 -272 -349 -405 -10 -25 -24 -60 -32 -77 -42 -100 -71 -265 -96
-543 -14 -162 -18 -1224 -6 -1471 8 -160 34 -413 48 -469 5 -19 16 -64 24 -99
21 -84 112 -273 172 -358 145 -203 369 -351 639 -423 165 -44 194 -45 1195
-45 l955 0 129 29 c382 83 658 286 802 590 126 267 156 544 156 1466 0 602
-20 966 -61 1151 -81 360 -298 622 -631 759 -166 68 -355 102 -670 120 -131 8
-1232 11 -1340 4z m1590 -468 c172 -23 280 -57 373 -119 184 -123 258 -268
287 -567 9 -98 25 -655 26 -945 1 -187 -17 -744 -27 -850 -12 -129 -48 -266
-92 -350 -75 -145 -230 -250 -442 -301 -146 -35 -346 -43 -1075 -43 -690 0
-916 8 -1060 39 -234 49 -392 160 -475 335 -63 133 -77 213 -96 565 -16 291
-6 1350 15 1550 45 423 209 606 611 681 104 20 487 27 1175 23 517 -2 691 -6
780 -18z"/>
<path d="M4620 4804 c-60 -34 -97 -79 -115 -138 -21 -69 -19 -109 9 -164 45
-89 120 -141 205 -142 98 0 172 44 215 132 56 112 18 239 -92 309 -63 40 -155
41 -222 3z"/>
<path d="M3535 4604 c-213 -31 -305 -64 -457 -166 -216 -144 -372 -369 -430
-621 -29 -124 -31 -335 -4 -457 74 -343 341 -644 668 -754 221 -74 473 -65
695 25 263 106 483 339 571 604 54 162 56 174 57 345 0 157 -2 170 -33 275
-58 194 -126 313 -254 445 -140 144 -288 229 -488 280 -82 21 -257 34 -325 24z
m245 -451 c92 -25 169 -70 262 -152 38 -33 103 -135 135 -212 24 -59 27 -75
27 -204 0 -160 -13 -207 -90 -327 -104 -163 -291 -268 -474 -268 -188 1 -362
86 -470 230 -56 74 -76 114 -100 204 -66 247 28 505 235 648 70 48 189 93 265
100 58 6 152 -3 210 -19z"/>
</g>
</svg>
