<?xml version="1.0" standalone="no"?>
<!DOCTYPE svg PUBLIC "-//W3C//DTD SVG 20010904//EN"
 "http://www.w3.org/TR/2001/REC-SVG-20010904/DTD/svg10.dtd">
<svg version="1.0" xmlns="http://www.w3.org/2000/svg"
 width="626.000000pt" height="417.000000pt" viewBox="0 0 626.000000 417.000000"
 preserveAspectRatio="xMidYMid meet">

<g transform="translate(0.000000,417.000000) scale(0.100000,-0.100000)"
fill="#000000" stroke="none">
<path d="M740 2475 l0 -1165 2390 0 2390 0 0 1165 0 1165 -2390 0 -2390 0 0
-1165z m4170 986 c0 -46 35 -146 70 -201 41 -64 125 -141 185 -169 48 -23 147
-51 177 -51 17 0 18 -27 16 -567 l-3 -566 -65 -13 c-191 -39 -341 -191 -375
-378 l-11 -61 -1774 0 -1773 0 -13 65 c-39 190 -184 335 -374 374 l-65 13 -3
565 -2 565 67 12 c37 7 91 24 122 39 67 33 163 119 198 179 30 52 63 153 63
194 l0 29 1780 0 1780 0 0 -29z"/>
<path d="M3040 3189 c-134 -20 -259 -89 -364 -200 -189 -201 -251 -504 -157
-776 40 -117 84 -186 176 -278 127 -127 264 -185 435 -185 160 0 299 55 418
166 251 232 309 631 137 941 -53 94 -179 218 -271 266 -118 61 -250 84 -374
66z m132 -275 c3 -47 3 -47 50 -59 92 -23 165 -96 175 -174 l6 -41 -52 0 c-42
0 -51 3 -51 18 0 43 -73 112 -119 112 -7 0 -11 -41 -11 -124 l0 -124 63 -21
c123 -41 177 -102 177 -200 0 -63 -13 -97 -53 -139 -39 -41 -92 -69 -146 -78
l-41 -7 0 -48 0 -49 -35 0 -35 0 0 49 0 48 -41 7 c-83 13 -163 74 -193 148
-28 66 -23 78 33 78 44 0 49 -2 55 -26 11 -42 37 -74 77 -95 69 -35 69 -35 69
114 l0 132 -55 17 c-115 37 -175 103 -175 192 0 109 71 190 187 214 37 8 38 9
41 55 3 46 4 47 37 47 33 0 34 -1 37 -46z"/>
<path d="M3029 2747 c-60 -41 -76 -103 -37 -152 20 -25 73 -55 98 -55 6 0 10
43 10 115 0 130 -5 137 -71 92z"/>
<path d="M3170 2294 c0 -137 0 -137 63 -110 43 18 67 46 74 90 10 66 -26 113
-107 136 l-30 9 0 -125z"/>
<path d="M1557 2753 c-64 -22 -144 -95 -173 -158 -29 -60 -32 -158 -8 -228 21
-63 84 -130 152 -164 111 -54 263 -27 341 63 103 117 108 287 10 398 -80 91
-213 127 -322 89z"/>
<path d="M4535 2761 c-218 -54 -296 -322 -144 -495 78 -90 230 -117 341 -63
109 54 168 150 168 276 0 186 -182 326 -365 282z"/>
<path d="M817 1193 c-4 -3 -7 -37 -7 -75 l0 -68 2285 0 2285 0 0 75 0 75
-2278 0 c-1253 0 -2282 -3 -2285 -7z"/>
<path d="M1000 865 l0 -75 2100 0 2100 0 0 75 0 75 -2100 0 -2100 0 0 -75z"/>
<path d="M1192 608 l3 -73 1903 -3 1902 -2 0 75 0 75 -1905 0 -1906 0 3 -72z"/>
</g>
</svg>
